# xmcd CD database file
#
# Track frame offsets:
#	150
#	16643
#	32774
#	47378
#	68223
#	85126
#	102336
#	116774
#	132377
#	150595
#	167340
#	183818
#	197708
#	213465
#
# Disc length: 3119 seconds
#
# Revision: 2
# Processed by: cddbd v1.4PL0 Copyright (c) Steve Scherf et al.
# Submitted via: CDex 1.40Beta9
#
DISCID=ad0c2d0e
DTITLE=Χρήστος Αντωνιάδης - Γνώμη σου
DYEAR=1999
DGENRE=Other
TTITLE0=Που να δεις
TTITLE1=Γνωμη σου
TTITLE2=Εισαι το αλφα και το ωμεγα
TTITLE3=Παραισθησεις
TTITLE4=Ετσι νομιζεις
TTITLE5=Θεμα χρονου
TTITLE6=Παγοβουνο
TTITLE7=Σιδερο αναμμενο
TTITLE8=Να κλαιω
TTITLE9=Αν οι αντρες αγαπανε
TTITLE10=Μη το συζητας
TTITLE11=Μουσκεμενο πουκαμισο
TTITLE12=Μια τελευταια καληνυχτα
TTITLE13=Σωμα
EXTD=KLcanislupus© YEAR: 1999 ID3G: 12
EXTT0=
EXTT1=
EXTT2=
EXTT3=
EXTT4=
EXTT5=
EXTT6=
EXTT7=
EXTT8=
EXTT9=
EXTT10=
EXTT11=
EXTT12=
EXTT13=
PLAYORDER=
